<svg width="320" height="128" viewBox="0 0 320 128" fill="none" xmlns="http://www.w3.org/2000/svg">
<path d="M32.3352 96.4545V76.8182L69.7898 17.9091H87.608V44.0909H77.4261L57.2443 76.0909V76.8182H112.517V96.4545H32.3352ZM77.608 111V90.4545L78.1534 81.9091V17.9091H101.79V111H77.608Z" fill="#184680"/>
<path d="M159.977 113.545C151.523 113.515 144.22 111.561 138.068 107.682C131.917 103.803 127.174 98.2121 123.841 90.9091C120.508 83.6061 118.856 74.8485 118.886 64.6364C118.917 54.3939 120.583 45.697 123.886 38.5455C127.22 31.3939 131.947 25.9545 138.068 22.2273C144.22 18.5 151.523 16.6364 159.977 16.6364C168.432 16.6364 175.735 18.5151 181.886 22.2727C188.038 26 192.78 31.4394 196.114 38.5909C199.447 45.7424 201.098 54.4242 201.068 64.6364C201.068 74.9091 199.402 83.697 196.068 91C192.735 98.303 187.992 103.894 181.841 107.773C175.72 111.621 168.432 113.545 159.977 113.545ZM159.977 93C164.341 93 167.917 90.7273 170.705 86.1818C173.523 81.6061 174.917 74.4242 174.886 64.6364C174.886 58.2424 174.25 53.0151 172.977 48.9545C171.705 44.8939 169.947 41.8939 167.705 39.9545C165.462 37.9848 162.886 37 159.977 37C155.614 37 152.053 39.2121 149.295 43.6364C146.538 48.0606 145.129 55.0606 145.068 64.6364C145.038 71.1515 145.659 76.5151 146.932 80.7273C148.205 84.9091 149.962 88 152.205 90C154.477 92 157.068 93 159.977 93Z" fill="#3E97D9"/>
<path d="M208.335 96.4545V76.8182L245.79 17.9091H263.608V44.0909H253.426L233.244 76.0909V76.8182H288.517V96.4545H208.335ZM253.608 111V90.4545L254.153 81.9091V17.9091H277.79V111H253.608Z" fill="#184680"/>
</svg>
