<svg width="320" height="129" viewBox="0 0 320 129" fill="none" xmlns="http://www.w3.org/2000/svg">
<path d="M72.642 112.773C65.4905 112.773 59.142 111.515 53.5966 109C48.0814 106.455 43.733 102.955 40.5511 98.5C37.3996 94.0455 35.7936 88.9242 35.733 83.1364H60.2784C60.3693 86.3485 61.6117 88.9091 64.0057 90.8182C66.4299 92.7273 69.3087 93.6818 72.642 93.6818C75.2178 93.6818 77.4905 93.1364 79.4602 92.0455C81.4299 90.9242 82.9754 89.3485 84.0966 87.3182C85.2178 85.2879 85.7633 82.9242 85.733 80.2273C85.7633 77.5 85.2178 75.1364 84.0966 73.1364C82.9754 71.1061 81.4299 69.5455 79.4602 68.4545C77.4905 67.3333 75.2178 66.7727 72.642 66.7727C69.9754 66.7727 67.5057 67.4242 65.233 68.7273C62.9905 70 61.339 71.7727 60.2784 74.0455L38.0966 69.6818L41.733 18.4091H104.278V38.5909H62.4602L60.642 59.1364H61.1875C62.642 56.3182 65.1572 53.9848 68.733 52.1364C72.3087 50.2576 76.4602 49.3182 81.1875 49.3182C86.733 49.3182 91.6724 50.6061 96.0057 53.1818C100.369 55.7576 103.809 59.3182 106.324 63.8636C108.869 68.3788 110.127 73.5909 110.097 79.5C110.127 85.9848 108.581 91.7424 105.46 96.7727C102.369 101.773 98.0208 105.697 92.4148 108.545C86.8087 111.364 80.2178 112.773 72.642 112.773Z" fill="#184680"/>
<path d="M159.977 114.045C151.523 114.015 144.22 112.061 138.068 108.182C131.917 104.303 127.174 98.7121 123.841 91.4091C120.508 84.1061 118.856 75.3485 118.886 65.1364C118.917 54.8939 120.583 46.197 123.886 39.0455C127.22 31.8939 131.947 26.4545 138.068 22.7273C144.22 19 151.523 17.1364 159.977 17.1364C168.432 17.1364 175.735 19.0151 181.886 22.7727C188.038 26.5 192.78 31.9394 196.114 39.0909C199.447 46.2424 201.098 54.9242 201.068 65.1364C201.068 75.4091 199.402 84.197 196.068 91.5C192.735 98.803 187.992 104.394 181.841 108.273C175.72 112.121 168.432 114.045 159.977 114.045ZM159.977 93.5C164.341 93.5 167.917 91.2273 170.705 86.6818C173.523 82.1061 174.917 74.9242 174.886 65.1364C174.886 58.7424 174.25 53.5151 172.977 49.4545C171.705 45.3939 169.947 42.3939 167.705 40.4545C165.462 38.4848 162.886 37.5 159.977 37.5C155.614 37.5 152.053 39.7121 149.295 44.1364C146.538 48.5606 145.129 55.5606 145.068 65.1364C145.038 71.6515 145.659 77.0151 146.932 81.2273C148.205 85.4091 149.962 88.5 152.205 90.5C154.477 92.5 157.068 93.5 159.977 93.5Z" fill="#3E97D9"/>
<path d="M247.977 114.045C239.523 114.015 232.22 112.061 226.068 108.182C219.917 104.303 215.174 98.7121 211.841 91.4091C208.508 84.1061 206.856 75.3485 206.886 65.1364C206.917 54.8939 208.583 46.197 211.886 39.0455C215.22 31.8939 219.947 26.4545 226.068 22.7273C232.22 19 239.523 17.1364 247.977 17.1364C256.432 17.1364 263.735 19.0151 269.886 22.7727C276.038 26.5 280.78 31.9394 284.114 39.0909C287.447 46.2424 289.098 54.9242 289.068 65.1364C289.068 75.4091 287.402 84.197 284.068 91.5C280.735 98.803 275.992 104.394 269.841 108.273C263.72 112.121 256.432 114.045 247.977 114.045ZM247.977 93.5C252.341 93.5 255.917 91.2273 258.705 86.6818C261.523 82.1061 262.917 74.9242 262.886 65.1364C262.886 58.7424 262.25 53.5151 260.977 49.4545C259.705 45.3939 257.947 42.3939 255.705 40.4545C253.462 38.4848 250.886 37.5 247.977 37.5C243.614 37.5 240.053 39.7121 237.295 44.1364C234.538 48.5606 233.129 55.5606 233.068 65.1364C233.038 71.6515 233.659 77.0151 234.932 81.2273C236.205 85.4091 237.962 88.5 240.205 90.5C242.477 92.5 245.068 93.5 247.977 93.5Z" fill="#184680"/>
</svg>
