<svg width="320" height="128" viewBox="0 0 320 128" fill="none" xmlns="http://www.w3.org/2000/svg">
<path d="M32.3352 96.4545V76.8182L69.7898 17.9091H87.608V44.0909H77.4261L57.2443 76.0909V76.8182H112.517V96.4545H32.3352ZM77.608 111V90.4545L78.1534 81.9091V17.9091H101.79V111H77.608Z" fill="#184680"/>
<path d="M159.977 113.545C151.523 113.515 144.22 111.561 138.068 107.682C131.917 103.803 127.174 98.2121 123.841 90.9091C120.508 83.6061 118.856 74.8485 118.886 64.6364C118.917 54.3939 120.583 45.697 123.886 38.5455C127.22 31.3939 131.947 25.9545 138.068 22.2273C144.22 18.5 151.523 16.6364 159.977 16.6364C168.432 16.6364 175.735 18.5151 181.886 22.2727C188.038 26 192.78 31.4394 196.114 38.5909C199.447 45.7424 201.098 54.4242 201.068 64.6364C201.068 74.9091 199.402 83.697 196.068 91C192.735 98.303 187.992 103.894 181.841 107.773C175.72 111.621 168.432 113.545 159.977 113.545ZM159.977 93C164.341 93 167.917 90.7273 170.705 86.1818C173.523 81.6061 174.917 74.4242 174.886 64.6364C174.886 58.2424 174.25 53.0151 172.977 48.9545C171.705 44.8939 169.947 41.8939 167.705 39.9545C165.462 37.9848 162.886 37 159.977 37C155.614 37 152.053 39.2121 149.295 43.6364C146.538 48.0606 145.129 55.0606 145.068 64.6364C145.038 71.1515 145.659 76.5151 146.932 80.7273C148.205 84.9091 149.962 88 152.205 90C154.477 92 157.068 93 159.977 93Z" fill="#3E97D9"/>
<path d="M247.358 112.273C240.025 112.273 233.509 111.015 227.812 108.5C222.146 105.955 217.691 102.455 214.449 98C211.206 93.5455 209.57 88.4242 209.54 82.6364H234.994C235.025 84.4242 235.57 86.0303 236.631 87.4545C237.722 88.8485 239.206 89.9394 241.085 90.7273C242.964 91.5152 245.116 91.9091 247.54 91.9091C249.873 91.9091 251.934 91.5 253.722 90.6818C255.509 89.8333 256.903 88.6667 257.903 87.1818C258.903 85.697 259.388 84 259.358 82.0909C259.388 80.2121 258.813 78.5455 257.631 77.0909C256.479 75.6364 254.858 74.5 252.767 73.6818C250.676 72.8636 248.267 72.4545 245.54 72.4545H236.085V55H245.54C248.055 55 250.267 54.5909 252.176 53.7727C254.116 52.9545 255.616 51.8182 256.676 50.3636C257.767 48.9091 258.297 47.2424 258.267 45.3636C258.297 43.5455 257.858 41.9394 256.949 40.5455C256.04 39.1515 254.767 38.0606 253.131 37.2727C251.525 36.4848 249.661 36.0909 247.54 36.0909C245.237 36.0909 243.176 36.5 241.358 37.3182C239.57 38.1364 238.161 39.2727 237.131 40.7273C236.1 42.1818 235.57 43.8485 235.54 45.7273H211.358C211.388 40.0303 212.949 35 216.04 30.6364C219.161 26.2727 223.434 22.8485 228.858 20.3636C234.282 17.8788 240.509 16.6364 247.54 16.6364C254.419 16.6364 260.494 17.803 265.767 20.1364C271.07 22.4697 275.206 25.6818 278.176 29.7727C281.176 33.8333 282.661 38.4848 282.631 43.7273C282.691 48.9394 280.903 53.2121 277.267 56.5455C273.661 59.8788 269.085 61.8485 263.54 62.4545V63.1818C271.055 64 276.706 66.303 280.494 70.0909C284.282 73.8485 286.146 78.5758 286.085 84.2727C286.116 89.7273 284.479 94.5606 281.176 98.7727C277.903 102.985 273.343 106.288 267.494 108.682C261.676 111.076 254.964 112.273 247.358 112.273Z" fill="#184680"/>
</svg>
