<svg width="320" height="128" viewBox="0 0 320 128" fill="none" xmlns="http://www.w3.org/2000/svg">
<path d="M32.3352 96.4545V76.8182L69.7898 17.9091H87.608V44.0909H77.4261L57.2443 76.0909V76.8182H112.517V96.4545H32.3352ZM77.608 111V90.4545L78.1534 81.9091V17.9091H101.79V111H77.608Z" fill="#184680"/>
<path d="M124.807 111V92.8182L159.534 64.0909C161.837 62.1818 163.807 60.3939 165.443 58.7273C167.11 57.0303 168.383 55.2879 169.261 53.5C170.17 51.7121 170.625 49.7273 170.625 47.5455C170.625 45.1515 170.11 43.1061 169.08 41.4091C168.08 39.7121 166.686 38.4091 164.898 37.5C163.11 36.5606 161.049 36.0909 158.716 36.0909C156.383 36.0909 154.322 36.5606 152.534 37.5C150.777 38.4394 149.413 39.8182 148.443 41.6364C147.473 43.4545 146.989 45.6667 146.989 48.2727H122.989C122.989 41.7273 124.458 36.0909 127.398 31.3636C130.337 26.6364 134.489 23 139.852 20.4545C145.216 17.9091 151.504 16.6364 158.716 16.6364C166.17 16.6364 172.625 17.8333 178.08 20.2273C183.564 22.5909 187.792 25.9242 190.761 30.2273C193.761 34.5303 195.261 39.5758 195.261 45.3636C195.261 48.9394 194.519 52.5 193.034 56.0455C191.549 59.5606 188.883 63.4545 185.034 67.7273C181.186 72 175.716 77.0909 168.625 83L159.898 90.2727V90.8182H196.261V111H124.807Z" fill="#3E97D9"/>
<path d="M246.733 16.6364C252.157 16.6364 257.294 17.5 262.142 19.2273C266.991 20.9242 271.278 23.6061 275.006 27.2727C278.763 30.9394 281.703 35.7273 283.824 41.6364C285.975 47.5151 287.066 54.6364 287.097 63C287.127 70.6364 286.172 77.5 284.233 83.5909C282.324 89.6515 279.581 94.8182 276.006 99.0909C272.46 103.364 268.188 106.636 263.188 108.909C258.218 111.152 252.672 112.273 246.551 112.273C239.672 112.273 233.627 110.955 228.415 108.318C223.203 105.682 219.051 102.136 215.96 97.6818C212.869 93.2273 211.066 88.2727 210.551 82.8182H235.46C236.066 85.6364 237.4 87.6818 239.46 88.9545C241.521 90.197 243.884 90.8182 246.551 90.8182C251.884 90.8182 255.778 88.5152 258.233 83.9091C260.718 79.2727 261.975 73.0909 262.006 65.3636H261.46C260.278 68.2121 258.491 70.6515 256.097 72.6818C253.703 74.7121 250.915 76.2727 247.733 77.3636C244.551 78.4545 241.188 79 237.642 79C232.036 79 227.127 77.7424 222.915 75.2273C218.703 72.6818 215.415 69.2121 213.051 64.8182C210.688 60.3939 209.491 55.3636 209.46 49.7273C209.43 43.1212 210.991 37.3333 214.142 32.3636C217.294 27.3939 221.672 23.5303 227.278 20.7727C232.884 18.0151 239.369 16.6364 246.733 16.6364ZM246.915 35.7273C244.4 35.7273 242.157 36.303 240.188 37.4545C238.248 38.6061 236.718 40.1667 235.597 42.1364C234.506 44.1061 233.975 46.3333 234.006 48.8182C234.036 51.303 234.597 53.5303 235.688 55.5C236.809 57.4697 238.324 59.0303 240.233 60.1818C242.172 61.3333 244.4 61.9091 246.915 61.9091C248.763 61.9091 250.475 61.5909 252.051 60.9545C253.627 60.2879 254.991 59.3636 256.142 58.1818C257.324 56.9697 258.233 55.5758 258.869 54C259.536 52.3939 259.854 50.6667 259.824 48.8182C259.794 46.3333 259.218 44.1061 258.097 42.1364C256.975 40.1667 255.445 38.6061 253.506 37.4545C251.566 36.303 249.369 35.7273 246.915 35.7273Z" fill="#184680"/>
</svg>
